<svg version="1.1" xmlns="http://www.w3.org/2000/svg" xmlns:xlink="http://www.w3.org/1999/xlink" width="512.000000pt" height="512.000000pt" viewBox="0,0,256,256"><g fill="#b3c700" fill-rule="nonzero" stroke="none" stroke-width="1" stroke-linecap="butt" stroke-linejoin="miter" stroke-miterlimit="10" stroke-dasharray="" stroke-dashoffset="0" font-family="none" font-weight="none" font-size="none" text-anchor="none" style="mix-blend-mode: normal"><g transform="translate(-0.41634,0.378) scale(0.5,0.5)"><g transform="translate(0,512) scale(0.1,-0.1)"><path d="M3878,4723c-408,-517 -388,-490 -388,-523c0,-76 30,-90 200,-90h130v-115c0,-131 14,-179 55,-195c39,-15 710,-13 738,2c42,22 46,37 47,176v132h133c86,0 141,5 157,13c31,16 53,58 45,89c-3,13 -162,222 -353,463l-347,440l-52,3l-51,3zM4508,4575l229,-290l-98,-5c-141,-7 -143,-10 -147,-185l-4,-135h-249h-249v135c0,131 -1,137 -25,160c-22,23 -32,25 -120,25c-52,0 -95,2 -95,5c0,5 374,482 454,579l40,48l17,-23c10,-13 121,-154 247,-314z"></path><path d="M1670,4735c-409,-187 -700,-326 -722,-344c-44,-37 -44,-37 -212,-636c-292,-1047 -515,-1890 -575,-2182c-15,-73 -21,-139 -21,-230c0,-119 2,-133 26,-181c30,-61 50,-74 203,-136c101,-41 138,-64 315,-195c629,-462 964,-621 1427,-675c398,-47 886,-14 1341,89l108,24l73,-33c197,-90 462,-167 692,-202c155,-24 561,-27 613,-5c63,26 77,100 26,140c-22,17 -38,19 -207,14c-204,-6 -344,5 -537,43c-195,38 -411,109 -558,183c-34,17 -72,31 -86,31c-13,0 -71,-11 -128,-24c-369,-87 -871,-132 -1185,-107c-530,42 -839,182 -1520,687c-172,127 -178,131 -323,190l-105,42l1,154v153l107,415c237,929 613,2291 640,2317c9,9 831,388 1234,569l53,24l207,-271c187,-243 208,-275 208,-309c0,-35 -14,-54 -185,-246c-102,-114 -201,-225 -221,-246c-54,-58 -73,-53 -182,45c-51,46 -103,89 -116,96c-30,17 -64,7 -101,-29c-40,-39 -115,-60 -235,-66c-133,-7 -142,-9 -161,-45c-20,-40 -14,-61 40,-134l45,-60l41,-695l41,-694l-22,-70c-30,-100 -65,-166 -107,-202c-99,-85 15,-202 119,-123c47,37 99,129 137,246l33,99l82,51c109,69 202,110 317,141c80,21 117,25 235,25c118,0 155,-5 238,-26c106,-28 254,-94 341,-152c136,-90 282,-290 302,-413c12,-78 89,-108 141,-56c23,23 25,31 20,84c-7,79 -67,203 -150,313l-67,87l87,91c106,110 191,175 303,233c99,50 188,81 280,96c242,38 536,-39 785,-205c46,-30 94,-55 107,-55c56,0 98,61 77,113c-20,47 -210,166 -364,227c-490,194 -948,90 -1314,-296l-91,-96l-48,31c-121,78 -313,151 -467,178c-132,22 -349,13 -470,-20c-103,-29 -211,-74 -286,-118c-28,-16 -53,-28 -56,-26c-2,3 -21,293 -42,644c-21,352 -41,644 -44,650c-4,7 10,13 38,18c54,8 152,40 171,56c11,9 29,-3 85,-55c111,-102 206,-120 312,-58c56,33 481,507 508,567c26,57 25,141 -4,196c-25,50 -444,600 -488,642c-16,15 -39,27 -52,26c-12,0 -330,-141 -707,-314z"></path><path d="M3872,3700c-42,-18 -54,-69 -50,-223c3,-138 3,-139 31,-163l28,-24h365h365l24,25c24,24 25,27 25,182c-1,165 -4,178 -47,201c-27,15 -706,16 -741,2zM4490,3500v-40h-250h-250v40v40h250h250z"></path><path d="M3873,3195c-53,-23 -61,-92 -17,-132c25,-23 26,-23 390,-23h365l24,25c32,31 32,75 1,112l-24,28l-354,2c-287,2 -359,0 -385,-12z"></path><path d="M1172,1337c-36,-38 -29,-85 22,-155c194,-264 520,-479 850,-562c166,-42 263,-54 446,-53c232,1 439,33 475,73c26,29 25,85 -3,112c-27,27 -59,28 -187,3c-138,-26 -450,-27 -580,-1c-198,39 -388,116 -547,223c-91,61 -257,218 -315,301c-25,34 -53,67 -63,72c-32,17 -75,11 -98,-13z"></path><path d="M4355,1255c-49,-48 -23,-140 57,-210c84,-73 242,-136 426,-171c85,-17 92,-17 117,0c48,31 55,95 15,131c-10,9 -67,27 -127,40c-59,12 -144,37 -189,54c-82,32 -164,90 -164,117c0,26 -47,64 -80,64c-19,0 -40,-9 -55,-25z"></path></g></g></g></svg>