<svg version="1.1" xmlns="http://www.w3.org/2000/svg" xmlns:xlink="http://www.w3.org/1999/xlink" width="800px" height="800px" viewBox="0,0,256,256"><g fill="#d4ff00" fill-rule="nonzero" stroke="none" stroke-width="1" stroke-linecap="butt" stroke-linejoin="miter" stroke-miterlimit="10" stroke-dasharray="" stroke-dashoffset="0" font-family="none" font-weight="none" font-size="none" text-anchor="none" style="mix-blend-mode: normal"><g transform="translate(0.004,0) scale(8.00525,8.00525)"><g><g><circle cx="10.085" cy="4.501" r="4.501"></circle><path d="M27.763,11.48h-1.25v-3.666h-2.959v-0.918h-1.813c0,-0.574 -0.483,-1.041 -1.082,-1.041c-0.6,0 -1.084,0.467 -1.084,1.041h-1.812v0.918h-3.417v1.87l-0.089,-0.004h-2.533l-1.717,1.99l-1.659,-1.99l-3.643,0.492l-0.238,8.276h1.547l0.082,1.68h0.236v1.026v0.755v8.014h-0.31l-1.807,0.39v1.666h1.537l1.796,-0.293l0.017,0.293h1.987v-1.855v-0.2v-8.014h1.133v8.014v0.2v1.855h1.99l0.016,-0.293l1.795,0.293h1.538v-1.666l-1.806,-0.391h-0.311v-8.014v-0.756v-1.025h0.286l0.152,-2.972v6.991h12.167v-9.292h1.25l0.001,-3.374zM20.659,6.517c0.24,0 0.438,0.195 0.438,0.438c0,0.243 -0.195,0.438 -0.438,0.438c-0.243,0 -0.439,-0.195 -0.439,-0.438c0,-0.243 0.197,-0.438 0.439,-0.438zM25.513,23.146h-10.167v-14.332h2.417v0.708h5.791v-0.708h1.959v2.666h-0.792v3.375h0.792z"></path></g></g></g></g></svg>